# xmcd CD database file
#
# Track frame offsets:
#	150
#	25816
#	145930
#	194457
#
# Disc length: 3721 seconds
#
# Revision: 2
# Processed by: cddbd v1.5.1PL2 Copyright (c) Steve Scherf et al.
# Submitted via: CDex 1.51
#
DISCID=320e8704
DTITLE=McLaughlin - Hussain - Shrinivas - Remember Shakti - Saturday Night in Bombay
DYEAR=2001
DGENRE=Jazz
TTITLE0=Luki
TTITLE1=Shringar
TTITLE2=Giriraj Sudha
TTITLE3=Bell'Alla
EXTD=YEAR: 2001
EXTT0=
EXTT1=
EXTT2=
EXTT3=
PLAYORDER=
